HIERARCHY
ROOT Hips
{
    OFFSET 0.000000 0.000000 0.000000
    CHANNELS 6 Xposition Yposition Zposition Zrotation Xrotation Yrotation
    JOINT Spine
    {
        OFFSET -0.000000 7.236184 0.000000
        CHANNELS 3 Zrotation Xrotation Yrotation
        JOINT Spine1
        {
            OFFSET -0.000000 20.420147 0.000000
            CHANNELS 3 Zrotation Xrotation Yrotation
            JOINT Neck
            {
                OFFSET -0.000000 20.336288 1.848754
                CHANNELS 3 Zrotation Xrotation Yrotation
                JOINT Head
                {
                    OFFSET -0.000000 12.354461 -1.764923
                    CHANNELS 3 Zrotation Xrotation Yrotation
                    End Site
                    {
                        OFFSET -0.000000 22.061537 0.000000
                    }
                }
            }
            JOINT LeftShoulder
            {
                OFFSET 3.573296 18.396038 -0.314103
                CHANNELS 3 Zrotation Xrotation Yrotation
                JOINT LeftArm
                {
                    OFFSET 10.880760 0.000000 0.000000
                    CHANNELS 3 Zrotation Xrotation Yrotation
                    JOINT LeftForeArm
                    {
                        OFFSET 27.185530 0.000000 0.000000
                        CHANNELS 3 Zrotation Xrotation Yrotation
                        JOINT LeftHand
                        {
                            OFFSET 27.825975 0.000000 0.000000
                            CHANNELS 3 Zrotation Xrotation Yrotation
                            End Site
                            {
                                OFFSET 13.236923 0.000000 0.000000
                            }
                        }
                    }
                }
            }
            JOINT RightShoulder
            {
                OFFSET -3.474926 18.396038 -0.314103
                CHANNELS 3 Zrotation Xrotation Yrotation
                JOINT RightArm
                {
                    OFFSET -10.880760 0.000000 0.000000
                    CHANNELS 3 Zrotation Xrotation Yrotation
                    JOINT RightForeArm
                    {
                        OFFSET -27.185530 0.000000 0.000000
                        CHANNELS 3 Zrotation Xrotation Yrotation
                        JOINT RightHand
                        {
                            OFFSET -27.825975 0.000000 0.000000
                            CHANNELS 3 Zrotation Xrotation Yrotation
                            End Site
                            {
                                OFFSET -13.236923 0.000000 0.000000
                            }
                        }
                    }
                }
            }
        }
    }
    JOINT LeftUpLeg
    {
        OFFSET 8.824615 0.000000 0.000000
        CHANNELS 3 Zrotation Xrotation Yrotation
        JOINT LeftLeg
        {
            OFFSET -0.000000 -35.111282 0.000000
            CHANNELS 3 Zrotation Xrotation Yrotation
            JOINT LeftFoot
            {
                OFFSET -0.000000 -42.324711 0.000000
                CHANNELS 3 Zrotation Xrotation Yrotation
                JOINT LeftToeBase
                {
                    OFFSET -0.000000 -5.735999 13.236923
                    CHANNELS 3 Zrotation Xrotation Yrotation
                    End Site
                    {
                        OFFSET -0.000000 0.000000 3.529846
                    }
                }
            }
        }
    }
    JOINT RightUpLeg
    {
        OFFSET -8.824615 0.000000 0.000000
        CHANNELS 3 Zrotation Xrotation Yrotation
        JOINT RightLeg
        {
            OFFSET -0.000000 -35.111282 0.000000
            CHANNELS 3 Zrotation Xrotation Yrotation
            JOINT RightFoot
            {
                OFFSET -0.000000 -42.324711 0.000000
                CHANNELS 3 Zrotation Xrotation Yrotation
                JOINT RightToeBase
                {
                    OFFSET -0.000000 -5.735999 13.236923
                    CHANNELS 3 Zrotation Xrotation Yrotation
                    End Site
                    {
                        OFFSET -0.000000 0.000000 3.529846
                    }
                }
            }
        }
    }
}
MOTION
Frames:    11
Frame Time:    0.008333
-19.357241    86.083008    95.441452    -12.059048    12.158640    109.856789    0.932517    -15.101714    -1.159003    1.980361    13.466086    -1.516411    1.058898    16.173326    11.148893    -16.878752    4.117901    9.822872    -0.663311    19.966808    -2.478841    -50.951920    38.066635    -33.675373    20.037868    4.978624    -27.462132    52.877659    5.687197    -8.503694    6.859377    16.867994    -7.408989    29.495861    34.849468    45.370235    -3.679998    -20.519886    128.743195    -9.410109    -12.323550    -10.545872    2.062931    -22.519522    -3.475372    -4.770206    30.231913    25.986656    -12.217401    20.038225    -21.247412    -0.353023    -3.154910    0.393605    -11.465926    -13.336380    5.412513    0.796993    19.780674    8.913901    -10.416256    -8.321594    -18.022598    -2.421152    0.471059    2.616917    
-19.437080    86.115463    95.497658    -12.145313    12.238822    110.071991    0.993420    -15.021345    -1.136748    1.770793    13.400517    -1.475730    0.685809    16.448492    10.964762    -16.515026    4.039093    9.659389    -0.692102    19.918585    -2.505165    -50.709126    37.807953    -33.802231    19.920944    5.021641    -27.137714    52.896851    5.620790    -8.540007    6.843184    16.923447    -7.349250    29.487013    35.155426    45.468903    -3.895738    -20.722403    128.636200    -9.344098    -12.113111    -10.605824    2.425423    -23.331343    -3.526133    -5.156217    31.031538    26.446014    -12.441541    20.984625    -21.840620    -0.317685    -2.824311    0.353983    -11.639869    -13.376656    5.156570    0.837098    19.738056    8.837863    -10.344037    -8.326558    -17.911856    -2.482419    0.497802    2.683037    
-19.510572    86.146782    95.545860    -12.226160    12.326038    110.250214    1.053027    -14.944626    -1.113175    1.578610    13.346382    -1.436011    0.356676    16.681091    10.822280    -16.231133    3.964391    9.530168    -0.724641    19.880938    -2.514703    -50.526173    37.559334    -33.881584    19.827444    5.050707    -26.879332    52.897278    5.567878    -8.562302    6.818420    16.966267    -7.286182    29.463154    35.419216    45.558617    -4.070829    -20.889294    128.552628    -9.274860    -11.947889    -10.649028    2.773018    -24.082533    -3.531825    -5.508774    31.776882    26.847761    -12.620222    21.810551    -22.373917    -0.295770    -2.460871    0.329337    -11.806252    -13.416171    4.942540    0.866910    19.701519    8.777893    -10.284095    -8.324168    -17.820475    -2.531209    0.519066    2.735689    
-19.584736    86.179497    95.591576    -12.308414    12.425815    110.414047    1.115496    -14.864580    -1.086859    1.383018    13.297488    -1.393615    0.036498    16.902906    10.697955    -15.980571    3.886807    9.414950    -0.763369    19.847137    -2.513293    -50.369827    37.299679    -33.933502    19.743292    5.071518    -26.644335    52.879284    5.520751    -8.574095    6.786076    17.003138    -7.215675    29.425161    35.669865    45.649338    -4.229129    -21.042028    128.479660    -9.198117    -11.802640    -10.681988    3.137614    -24.843903    -3.495923    -5.854687    32.539398    27.225052    -12.774152    22.594303    -22.896820    -0.284608    -2.051726    0.316666    -11.980376    -13.457737    4.745131    0.892461    19.667810    8.723402    -10.228636    -8.316550    -17.736362    -2.575208    0.537877    2.783168    
-19.661049    86.214241    95.635834    -12.393403    12.540345    110.567513    1.181655    -14.779786    -1.057267    1.177961    13.253398    -1.347383    -0.281951    17.122383    10.585971    -15.751050    3.804585    9.308700    -0.809642    19.814581    -2.502321    -50.232170    37.024063    -33.961590    19.665163    5.085310    -26.420490    52.839607    5.477914    -8.575047    6.746576    17.035074    -7.136432    29.372303    35.912212    45.743176    -4.375413    -21.184313    128.414215    -9.112955    -11.671854    -10.705360    3.528095    -25.630283    -3.414480    -6.195083    33.335541    27.580090    -12.905300    23.344084    -23.417152    -0.284530    -1.600417    0.316314    -12.166142    -13.501659    4.558520    0.914160    19.636179    8.672548    -10.175428    -8.304129    -17.655697    -2.615711    0.554869    2.826875    
-19.743742    86.253105    95.680893    -12.485766    12.677549    110.717865    1.254769    -14.685605    -1.022527    0.950085    13.212822    -1.294224    -0.615614    17.353964    10.479120    -15.526478    3.713212    9.204884    -0.867468    19.780575    -2.480939    -50.103306    36.716675    -33.967316    19.588255    5.092539    -26.190752    52.770290    5.437347    -8.562968    6.697733    17.063828    -7.043563    29.299612    36.157555    45.846634    -4.517557    -21.323206    128.352142    -9.014258    -11.548150    -10.719344    3.970138    -26.485292    -3.275187    -6.541386    34.211685    27.925026    -13.017289    24.088554    -23.959932    -0.296640    -1.092806    0.329469    -12.375141    -13.550512    4.373569    0.933262    19.605602    8.622468    -10.121323    -8.286200    -17.574081    -2.655521    0.570837    2.869833    
-19.824486    86.292427    95.721985    -12.576270    12.825485    110.848045    1.327456    -14.591944    -0.985648    0.719483    13.181713    -1.238711    -0.929883    17.575836    10.387452    -15.326047    3.622016    9.113531    -0.931971    19.746952    -2.450897    -49.995834    36.407238    -33.948483    19.519516    5.092656    -25.973997    52.671715    5.404006    -8.536827    6.644668    17.085630    -6.945945    29.211882    36.379269    45.950382    -4.640754    -21.444225    128.299393    -8.910810    -11.444357    -10.721640    4.424121    -27.322399    -3.086063    -6.851758    35.081284    28.219217    -13.096135    24.738768    -24.466534    -0.319589    -0.595927    0.354635    -12.587595    -13.599820    4.210022    0.947351    19.579811    8.578570    -10.071530    -8.264462    -17.499052    -2.690352    0.584188    2.907420    
-19.908003    86.334641    95.761734    -12.670345    12.993116    110.965660    1.403256    -14.494282    -0.944496    0.471345    13.159730    -1.177320    -1.243583    17.802500    10.303343    -15.131986    3.526585    9.027740    -1.006848    19.710682    -2.410710    -49.900192    36.077236    -33.906609    19.453249    5.086880    -25.751741    52.534737    5.376483    -8.493879    6.584513    17.102070    -6.838806    29.103355    36.589424    46.062454    -4.753423    -21.554993    128.251343    -8.795763    -11.352699    -10.712873    4.919992    -28.189840    -2.836352    -7.140190    35.993881    28.479975    -13.147324    25.330334    -24.966568    -0.353024    -0.097567    0.391384    -12.816167    -13.652570    4.056979    0.956772    19.557123    8.539019    -10.022475    -8.237923    -17.425314    -2.722908    0.596259    2.942554    
-19.987494    86.376556    95.796997    -12.760593    13.167669    111.060127    1.475501    -14.401765    -0.902220    0.224119    13.150961    -1.114447    -1.531137    18.015619    10.232134    -14.955021    3.435925    8.953758    -1.085928    19.673336    -2.363688    -49.822720    35.752052    -33.845493    19.392614    5.076875    -25.537794    52.366230    5.358059    -8.435767    6.522056    17.111078    -6.731158    28.982288    36.769817    46.175064    -4.846991    -21.646793    128.210846    -8.676691    -11.279813    -10.693561    5.421835    -29.015881    -2.547142    -7.379674    36.873013    28.686319    -13.167249    25.810709    -25.418945    -0.392239    0.344924    0.434514    -13.042673    -13.705055    3.926477    0.959991    19.539503    8.508049    -9.977739    -8.208735    -17.358170    -2.750534    0.606231    2.972365    
-20.071144    86.422661    95.831688    -12.856583    13.367476    111.140999    1.550855    -14.305896    -0.854361    -0.048785    13.156213    -1.043355    -1.822127    18.237062    10.164661    -14.771806    3.342406    8.882949    -1.176707    19.630219    -2.305375    -49.753986    35.396587    -33.760643    19.329092    5.063663    -25.305676    52.145786    5.348284    -8.355185    6.451104    17.113169    -6.612971    28.836277    36.938625    46.301178    -4.932457    -21.729815    128.172424    -8.539497    -11.216566    -10.662597    5.985449    -29.884008    -2.191696    -7.592757    37.804062    28.861551    -13.159779    26.232164    -25.872465    -0.438930    0.765215    0.485873    -13.290575    -13.762882    3.803915    0.956824    19.524693    8.483292    -9.932317    -8.173987    -17.289835    -2.776252    0.615075    3.000119    
-20.151405    86.469238    95.862701    -12.950122    13.576704    111.198441    1.621685    -14.216450    -0.804694    -0.325258    13.178216    -0.969374    -2.089350    18.445614    10.106203    -14.594193    3.256516    8.821704    -1.270465    19.584574    -2.240092    -49.700481    35.039341    -33.659466    19.265205    5.050155    -25.071648    51.885868    5.350411    -8.255753    6.377180    17.107233    -6.495449    28.677219    37.077793    46.431618    -5.001889    -21.795774    128.139023    -8.392884    -11.168673    -10.621961    6.567992    -30.713785    -1.802214    -7.756193    38.696964    28.988813    -13.124916    26.550232    -26.286249    -0.487759    1.111009    0.539594    -13.538626    -13.821576    3.701187    0.946189    19.513899    8.469063    -9.890253    -8.136179    -17.226475    -2.797587    0.622203    3.023144    
